<?xml version="1.0" standalone="no"?>
<svg xmlns:xlink="http://www.w3.org/1999/xlink" id="wave" style="transform:rotate(0deg); transition: 0.3s" viewBox="0 0 1440 240" version="1.1" xmlns="http://www.w3.org/2000/svg"><defs><linearGradient id="sw-gradient-0" x1="0" x2="0" y1="1" y2="0"><stop stop-color="rgba(0, 68, 91, 1)" offset="0%"/><stop stop-color="rgba(2.39, 119.974, 159.745, 1)" offset="100%"/></linearGradient></defs><path style="transform:translate(0, 0px); opacity:1" fill="url(#sw-gradient-0)" d="M0,24L60,40C120,56,240,88,360,104C480,120,600,120,720,100C840,80,960,40,1080,40C1200,40,1320,80,1440,116C1560,152,1680,184,1800,184C1920,184,2040,152,2160,136C2280,120,2400,120,2520,120C2640,120,2760,120,2880,132C3000,144,3120,168,3240,176C3360,184,3480,176,3600,148C3720,120,3840,72,3960,44C4080,16,4200,8,4320,4C4440,0,4560,0,4680,16C4800,32,4920,64,5040,72C5160,80,5280,64,5400,48C5520,32,5640,16,5760,20C5880,24,6000,48,6120,72C6240,96,6360,120,6480,108C6600,96,6720,48,6840,36C6960,24,7080,48,7200,60C7320,72,7440,72,7560,64C7680,56,7800,40,7920,64C8040,88,8160,152,8280,160C8400,168,8520,120,8580,96L8640,72L8640,240L8580,240C8520,240,8400,240,8280,240C8160,240,8040,240,7920,240C7800,240,7680,240,7560,240C7440,240,7320,240,7200,240C7080,240,6960,240,6840,240C6720,240,6600,240,6480,240C6360,240,6240,240,6120,240C6000,240,5880,240,5760,240C5640,240,5520,240,5400,240C5280,240,5160,240,5040,240C4920,240,4800,240,4680,240C4560,240,4440,240,4320,240C4200,240,4080,240,3960,240C3840,240,3720,240,3600,240C3480,240,3360,240,3240,240C3120,240,3000,240,2880,240C2760,240,2640,240,2520,240C2400,240,2280,240,2160,240C2040,240,1920,240,1800,240C1680,240,1560,240,1440,240C1320,240,1200,240,1080,240C960,240,840,240,720,240C600,240,480,240,360,240C240,240,120,240,60,240L0,240Z"/><defs><linearGradient id="sw-gradient-1" x1="0" x2="0" y1="1" y2="0"><stop stop-color="rgba(0, 68, 91, 1)" offset="0%"/><stop stop-color="rgba(0, 68, 91, 1)" offset="100%"/></linearGradient></defs><path style="transform:translate(0, 50px); opacity:0.9" fill="url(#sw-gradient-1)" d="M0,216L60,216C120,216,240,216,360,180C480,144,600,72,720,64C840,56,960,112,1080,112C1200,112,1320,56,1440,40C1560,24,1680,48,1800,80C1920,112,2040,152,2160,168C2280,184,2400,176,2520,168C2640,160,2760,152,2880,160C3000,168,3120,192,3240,204C3360,216,3480,216,3600,216C3720,216,3840,216,3960,204C4080,192,4200,168,4320,148C4440,128,4560,112,4680,124C4800,136,4920,176,5040,176C5160,176,5280,136,5400,108C5520,80,5640,64,5760,56C5880,48,6000,48,6120,64C6240,80,6360,112,6480,140C6600,168,6720,192,6840,192C6960,192,7080,168,7200,132C7320,96,7440,48,7560,56C7680,64,7800,128,7920,164C8040,200,8160,208,8280,200C8400,192,8520,168,8580,156L8640,144L8640,240L8580,240C8520,240,8400,240,8280,240C8160,240,8040,240,7920,240C7800,240,7680,240,7560,240C7440,240,7320,240,7200,240C7080,240,6960,240,6840,240C6720,240,6600,240,6480,240C6360,240,6240,240,6120,240C6000,240,5880,240,5760,240C5640,240,5520,240,5400,240C5280,240,5160,240,5040,240C4920,240,4800,240,4680,240C4560,240,4440,240,4320,240C4200,240,4080,240,3960,240C3840,240,3720,240,3600,240C3480,240,3360,240,3240,240C3120,240,3000,240,2880,240C2760,240,2640,240,2520,240C2400,240,2280,240,2160,240C2040,240,1920,240,1800,240C1680,240,1560,240,1440,240C1320,240,1200,240,1080,240C960,240,840,240,720,240C600,240,480,240,360,240C240,240,120,240,60,240L0,240Z"/></svg>