<?xml version="1.0" standalone="no"?>
<svg xmlns:xlink="http://www.w3.org/1999/xlink" id="wave" style="transform:rotate(0deg); transition: 0.3s" viewBox="0 0 1440 360" version="1.1" xmlns="http://www.w3.org/2000/svg"><defs><linearGradient id="sw-gradient-0" x1="0" x2="0" y1="1" y2="0"><stop stop-color="rgba(246, 246, 246, 1)" offset="0%"/><stop stop-color="rgba(246, 246, 246, 1)" offset="100%"/></linearGradient></defs><path style="transform:translate(0, 0px); opacity:1" fill="url(#sw-gradient-0)" d="M0,36L240,84C480,132,960,228,1440,228C1920,228,2400,132,2880,90C3360,48,3840,60,4320,108C4800,156,5280,240,5760,282C6240,324,6720,324,7200,288C7680,252,8160,180,8640,132C9120,84,9600,60,10080,72C10560,84,11040,132,11520,156C12000,180,12480,180,12960,198C13440,216,13920,252,14400,228C14880,204,15360,120,15840,78C16320,36,16800,36,17280,60C17760,84,18240,132,18720,138C19200,144,19680,108,20160,108C20640,108,21120,144,21600,180C22080,216,22560,252,23040,228C23520,204,24000,120,24480,96C24960,72,25440,108,25920,144C26400,180,26880,216,27360,216C27840,216,28320,180,28800,174C29280,168,29760,192,30240,204C30720,216,31200,216,31680,228C32160,240,32640,264,33120,240C33600,216,34080,144,34320,108L34560,72L34560,360L34320,360C34080,360,33600,360,33120,360C32640,360,32160,360,31680,360C31200,360,30720,360,30240,360C29760,360,29280,360,28800,360C28320,360,27840,360,27360,360C26880,360,26400,360,25920,360C25440,360,24960,360,24480,360C24000,360,23520,360,23040,360C22560,360,22080,360,21600,360C21120,360,20640,360,20160,360C19680,360,19200,360,18720,360C18240,360,17760,360,17280,360C16800,360,16320,360,15840,360C15360,360,14880,360,14400,360C13920,360,13440,360,12960,360C12480,360,12000,360,11520,360C11040,360,10560,360,10080,360C9600,360,9120,360,8640,360C8160,360,7680,360,7200,360C6720,360,6240,360,5760,360C5280,360,4800,360,4320,360C3840,360,3360,360,2880,360C2400,360,1920,360,1440,360C960,360,480,360,240,360L0,360Z"/></svg>